<?xml version="1.0" encoding="utf-8"?>
<!-- Generator: $$$/GeneralStr/196=Adobe Illustrator 27.6.0, SVG Export Plug-In . SVG Version: 6.00 Build 0)  -->
<svg version="1.1" id="Layer_1" xmlns="http://www.w3.org/2000/svg" xmlns:xlink="http://www.w3.org/1999/xlink" x="0px" y="0px"
	 viewBox="0 0 361.8 126.3" style="enable-background:new 0 0 361.8 126.3;" xml:space="preserve">
<style type="text/css">
	.st0{fill:#6B6B6A;}
	.st1{fill:#009FE3;}
	.st2{fill:#FFFFFF;}
</style>
<g>
	<path class="st0" d="M161,110.6h4.3c1.8,0,2.8,0.6,2.8,1.9c0.1,1.1-1.1,3.6-1.3,4c-1.3,2.7-2.3,4.3-3.3,5.1
		c-1.3,1.1-2.9,1.6-5.4,1.6H155L161,110.6z M157.5,121.9h1.7c2.5,0,3.8-0.8,5.2-3.8l1.2-2.6c1.2-2.6,0.8-3.5-1.1-3.5h-2.3
		L157.5,121.9z"/>
	<path class="st0" d="M172,115.8L172,115.8c1.3-1.4,2.2-1.5,3.8-1.5l-0.7,1.5c-0.3,0-0.5-0.1-0.8-0.1c-1.8,0-2.8,1.2-3.3,2.4
		l-2.5,5.3h-1.6l4.2-8.9h1.6L172,115.8z"/>
	<path class="st0" d="M177,119.3c-1.2,2.5-0.7,3,0.6,3c1.1,0,2-0.8,2.5-1.7h1.7c-0.9,2-2.7,2.9-4.7,2.9c-2.1,0-3.4-0.6-1.6-4.5
		c1.2-2.6,2.6-4.8,5.9-4.8c2.8,0,2.8,1.4,1.4,4.3l-0.4,0.8C182.4,119.3,177,119.3,177,119.3z M181.3,118.2c1.2-2.6,0.6-2.9-0.6-2.9
		c-1,0-2,0.4-3.2,2.9H181.3z"/>
	<path class="st0" d="M188.8,123.3l2.8-6c0.5-1.1,0.5-1.9-0.9-1.9c-1.6,0-2.5,1.2-3.2,2.7l-2.5,5.3h-1.6l6-12.8h1.6l-2.3,5h0.1
		c1.1-1,2-1.3,3.3-1.3c1.7,0,2.2,0.8,1.3,2.8l-3,6.3L188.8,123.3L188.8,123.3z"/>
	<path class="st0" d="M196.8,119.3c-1.2,2.5-0.7,3,0.6,3c1.1,0,2-0.8,2.5-1.7h1.7c-0.9,2-2.7,2.9-4.7,2.9c-2.1,0-3.4-0.6-1.6-4.5
		c1.2-2.6,2.6-4.8,5.9-4.8c2.8,0,2.8,1.4,1.4,4.3l-0.4,0.8C202.2,119.3,196.8,119.3,196.8,119.3z M201.1,118.2
		c1.2-2.6,0.6-2.9-0.6-2.9c-1,0-2,0.4-3.2,2.9H201.1z"/>
	<path class="st0" d="M208.6,123.3l2.9-6.2c0.4-1,0.4-1.7-0.9-1.7c-1.7,0-2.6,1.4-3.2,2.6l-2.5,5.3h-1.6l3.3-7.1
		c0.3-0.6,0.5-1.2,0.8-1.9h1.7l-0.5,1.1h0.1c1.1-1,2-1.3,3.2-1.3c2.1,0,2.1,1.1,1.2,2.9l-2.9,6.2L208.6,123.3L208.6,123.3z"/>
	<path class="st0" d="M214.9,123.3h-1.8l0.9-1.8h1.8L214.9,123.3z"/>
	<path class="st0" d="M222.4,123.3l6-12.8h6.9l-0.7,1.4h-5.1l-1.9,4.1h4.9l-0.7,1.4h-4.9l-2.7,5.8L222.4,123.3L222.4,123.3z"/>
	<path class="st0" d="M236.4,115.8L236.4,115.8c1.3-1.4,2.2-1.5,3.8-1.5l-0.7,1.5c-0.3,0-0.5-0.1-0.8-0.1c-1.8,0-2.8,1.2-3.3,2.4
		l-2.5,5.3h-1.6l4.2-8.9h1.6L236.4,115.8z"/>
	<path class="st0" d="M243.5,122L243.5,122c-1,1-2,1.5-3.2,1.5c-2.1,0-2.1-1.2-1.3-2.9c1.3-2.7,4.2-2.8,6.4-2.8
		c0.6-1.2,1.2-2.5-0.5-2.5c-1.1,0-1.9,0.7-2.3,1.6H241c1-2,2.5-2.7,4.5-2.7c2.5,0,2.6,1.2,1.9,2.7l-2,4.3c-0.3,0.7-0.6,1.4-0.8,2.1
		h-1.7L243.5,122z M240.6,120.7c-0.4,0.9-0.3,1.6,0.8,1.6c1,0,2.4-0.5,3.6-3.4C243.5,118.9,241.5,118.8,240.6,120.7z M245.4,112.9
		h-1.8l0.9-1.8h1.8L245.4,112.9z M248.8,112.9H247l0.9-1.8h1.8L248.8,112.9z"/>
	<path class="st0" d="M250.6,123.5c-2.1,0-3-0.8-2-2.9h1.8c-0.2,0.5-0.8,1.7,0.8,1.7c0.9,0,1.9-0.4,2.3-1.4c0.7-1.6-4.1-1.6-2.8-4.3
		c0.4-0.9,1.8-2.4,4.5-2.4c1.7,0,2.9,0.8,1.9,2.5h-1.8c0.5-0.9,0.2-1.4-0.9-1.4c-0.8,0-1.7,0.4-2.1,1.2c-0.7,1.6,4.1,1.5,2.9,4.3
		C254.4,122.8,252.6,123.5,250.6,123.5z"/>
	<path class="st0" d="M260.1,119.3c-1.2,2.5-0.7,3,0.6,3c1.1,0,2-0.8,2.5-1.7h1.7c-0.9,2-2.7,2.9-4.7,2.9c-2.1,0-3.4-0.6-1.6-4.5
		c1.2-2.6,2.6-4.8,5.9-4.8c2.8,0,2.8,1.4,1.4,4.3l-0.4,0.8C265.5,119.3,260.1,119.3,260.1,119.3z M264.4,118.2
		c1.2-2.6,0.6-2.9-0.6-2.9c-1,0-2,0.4-3.2,2.9H264.4z"/>
	<path class="st0" d="M271.9,123.3l2.9-6.2c0.4-1,0.4-1.7-0.9-1.7c-1.7,0-2.6,1.4-3.2,2.6l-2.5,5.3h-1.6l3.3-7.1
		c0.3-0.6,0.5-1.2,0.8-1.9h1.7l-0.5,1.1h0.1c1.1-1,2-1.3,3.2-1.3c2.1,0,2.1,1.1,1.2,2.9l-2.9,6.2L271.9,123.3L271.9,123.3z"/>
	<path class="st0" d="M278.2,123.3h-1.8l0.9-1.8h1.8L278.2,123.3z"/>
	<path class="st0" d="M286.1,123.3l6-12.8h4.1c1.9,0,3.6,0.6,2.2,3.6c-1.4,2.9-4.1,3.5-5.5,3.5h-2.3l-2.6,5.6h-1.9L286.1,123.3
		L286.1,123.3z M291.1,116.3h1.9c0.7,0,2.5-0.2,3.5-2.2c0.9-1.9-0.6-2.1-1-2.1h-2.4L291.1,116.3z"/>
	<path class="st0" d="M301.8,115.8L301.8,115.8c1.3-1.4,2.2-1.5,3.8-1.5l-0.7,1.5c-0.3,0-0.5-0.1-0.8-0.1c-1.8,0-2.8,1.2-3.3,2.4
		l-2.5,5.3h-1.6l4.2-8.9h1.6L301.8,115.8z"/>
	<path class="st0" d="M305.1,119c1.2-2.6,2.6-4.8,5.9-4.8c3.4,0,2.7,2.2,1.5,4.8c-1.8,3.9-3.7,4.5-5.8,4.5
		C304.7,123.5,303.3,122.9,305.1,119z M311.2,118.4c1.1-2.4,0.6-3-0.7-3c-1.2,0-2.3,0.5-3.4,3c-1.4,2.9-1.4,3.9,0.2,3.9
		C308.9,122.3,309.8,121.3,311.2,118.4z"/>
	<path class="st0" d="M322.1,115.7l-7.3,6.4h4.4l-0.6,1.2h-6.1l0.6-1.4l7.2-6.3l0,0h-4l0.6-1.2h5.8L322.1,115.7z"/>
	<path class="st0" d="M324.5,119.3c-1.2,2.5-0.7,3,0.6,3c1.1,0,2-0.8,2.5-1.7h1.7c-0.9,2-2.7,2.9-4.7,2.9c-2.1,0-3.4-0.6-1.6-4.5
		c1.2-2.6,2.6-4.8,5.9-4.8c2.8,0,2.8,1.4,1.4,4.3l-0.4,0.8C329.9,119.3,324.5,119.3,324.5,119.3z M328.8,118.2
		c1.2-2.6,0.6-2.9-0.6-2.9c-1,0-2,0.4-3.2,2.9H328.8z"/>
	<path class="st0" d="M333.8,123.5c-2.1,0-3-0.8-2-2.9h1.8c-0.2,0.5-0.8,1.7,0.8,1.7c0.9,0,1.9-0.4,2.3-1.4c0.7-1.6-4.1-1.6-2.8-4.3
		c0.4-0.9,1.8-2.4,4.5-2.4c1.7,0,2.9,0.8,1.9,2.5h-1.8c0.5-0.9,0.2-1.4-0.9-1.4c-0.8,0-1.7,0.4-2.1,1.2c-0.7,1.6,4.1,1.5,2.9,4.3
		C337.5,122.8,335.7,123.5,333.8,123.5z"/>
	<path class="st0" d="M342.6,123.5c-2.1,0-3-0.8-2-2.9h1.8c-0.2,0.5-0.8,1.7,0.8,1.7c0.9,0,1.9-0.4,2.3-1.4c0.7-1.6-4.1-1.6-2.8-4.3
		c0.4-0.9,1.8-2.4,4.5-2.4c1.7,0,2.9,0.8,1.9,2.5h-1.8c0.5-0.9,0.2-1.4-0.9-1.4c-0.8,0-1.7,0.4-2.1,1.2c-0.7,1.6,4.1,1.5,2.9,4.3
		C346.4,122.8,344.5,123.5,342.6,123.5z"/>
	<path class="st0" d="M352.1,119.3c-1.2,2.5-0.7,3,0.6,3c1.1,0,2-0.8,2.5-1.7h1.7c-0.9,2-2.7,2.9-4.7,2.9c-2.1,0-3.4-0.6-1.6-4.5
		c1.2-2.6,2.6-4.8,5.9-4.8c2.8,0,2.8,1.4,1.4,4.3l-0.4,0.8C357.5,119.3,352.1,119.3,352.1,119.3z M356.4,118.2
		c1.2-2.6,0.6-2.9-0.6-2.9c-1,0-2,0.4-3.2,2.9H356.4z"/>
	<path class="st0" d="M360.3,123.3h-1.8l0.9-1.8h1.8L360.3,123.3z"/>
</g>
<path class="st1" d="M68.1,86.4h13c-2,4.5-0.4,4.9,3.3,4.9h15.9c2.7,0,5.7-0.3,7.2-3.6c1.7-3.7,0.3-3.9-16.4-3.9
	c-19.5,0-20.7-2.3-15.8-12.7c3.6-7.7,7-13.6,23.4-13.6h18.1c15,0,14,5.1,10.5,12.5l-0.6,1.3h-13c1.4-3.1,1.7-4.4-4.3-4.4H95.2
	c-2.9,0-5.4,1-6.4,3.3c-1.7,3.7-0.2,3.8,13.7,3.7c20.2-0.1,24.3,1.2,18.5,13.5c-5.3,11.4-10,13.3-27.3,13.3H78
	c-11.8,0-15.5-2.2-11.2-11.4L68.1,86.4z"/>
<path class="st1" d="M124.1,89.8c3.8-8.1,9.6-8.6,20.5-8.6c6.1,0,9.4,0.2,10.6,2.4l1.2-2.6c1.4-2.9,1-4-3.4-4h-6.6
	c-3.3,0-4.3,0.3-5.4,2.4h-11c3.8-8.1,8.4-9.4,17.8-9.4h13c7.7,0,10.1,3.7,6.8,10.7l-9.1,19.6h-10.6l1.6-3.4
	c-4.6,3.2-6.1,3.9-11.7,3.9h-7.7c-6.9,0.1-10.5-1.5-7.3-8.5L124.1,89.8z M142.2,93.7c7.7,0,9-1.2,9.9-3.2c1-2.2,0.8-3-5.4-3h-5
	c-4.7,0-6.2,1.1-7.4,3.5c-0.9,1.9,0.3,2.7,4.6,2.7H142.2z"/>
<path class="st1" d="M202.5,100.2h-11.2l2.2-4.8h-0.1c-3.9,4.1-8.4,5.3-14.4,5.3c-7,0-16.5-0.3-10.5-13.2l8-17.1h11.2l-8,17.1
	c-1.4,2.9,0.3,4.4,5.2,4.4h2.6c4.8,0,8.7-2.2,10.7-6.5l7-15h11.2L202.5,100.2z"/>
<path class="st1" d="M220.8,78.5h-5.6l3.8-8.1h5.6l3.3-7h11.2l-3.3,7h17.4l-3.8,8.1H232L226.7,90c-1,2.2,0.4,2.7,3.1,2.7
	c3.6,0,5-0.8,6.3-3.6l0.9-2h9.8l-1.7,3.6c-2.6,5.7-8.4,10-17.3,10h-4.4c-6.9,0-11.9-2.2-8-10.4L220.8,78.5z"/>
<path class="st1" d="M250.8,83.7c5.3-11.3,12-13.7,20.2-13.7h7.8c11.9,0,15.7,2.5,10.8,12.9l-2.3,5h-27.2l-0.8,1.8
	c-1.5,3.2,0.3,4,5,4h3.4c6.1,0,7.1-1.6,8-3.4h10.5l-0.6,1.3c-3.5,7.5-10.9,9.1-19,9.1h-8.4c-7.4,0-14.6-1.4-8.7-14.1L250.8,83.7z
	 M279.6,81.2c1.7-3.6,0.3-4.2-6.2-4.2c-7.3,0-8.5,0.6-10.1,4.2H279.6z"/>
<path class="st1" d="M300.1,70.4h10.5l-2.6,5.7h0.1c3.5-4.7,8.7-6.1,13.8-6.1c8.2,0,9.8,3.5,5.9,11.7c-0.4,0.8-0.8,1.6-1.3,2.6h-9.7
	c1.8-3.8,1.7-5.6-2.8-5.6c-3.9,0-7.2,1.5-8.9,5l-7.7,16.5h-11.2L300.1,70.4z"/>
<path class="st1" d="M4.5,74.6c-4,0-5.6-2.8-3.6-6.3L26,24.9c2-3.4,5.2-3.4,7.2,0l25.1,43.5c2,3.4,0.4,6.3-3.6,6.3H4.5V74.6z"/>
<path class="st2" d="M41.9,53.9L41.9,53.9H36V57h5.8c-0.7,6.2-6,11.1-12.4,11.1c-4.3,0-8-2.1-10.3-5.4h-3.4c2.6,5,7.7,8.3,13.7,8.3
	c8.1,0,14.7-6.2,15.4-14.2l0,0C44.8,55.2,43.5,53.9,41.9,53.9z"/>
<polygon class="st2" points="34.7,62.7 34.7,57 34.7,57 34.7,53.9 34.7,53.9 34.7,48.1 32.1,48.1 32.1,53.9 26.5,53.9 26.5,48.1 
	23.8,48.1 23.8,53.9 23.8,57 23.8,62.7 26.5,62.7 26.5,57 32.1,57 32.1,62.7 "/>
<path class="st2" d="M39.4,48.1h3.5c-2.6-4.7-7.7-7.9-13.5-7.9c-8,0-14.6,6.1-15.4,13.9l0,0c0,1.6,1.3,2.9,2.9,2.9l0,0h5.5v-3.1H17
	c0.8-6.1,6-10.8,12.4-10.8C33.5,43.1,37.1,45,39.4,48.1z"/>
</svg>
