<svg xmlns="http://www.w3.org/2000/svg" fill="none" viewBox="0 0.79 115 46.03">
<g id="BFSA_Logo_farbig 1" clip-path="url(#clip0_282_6784)">
<g id="Ebene 2">
<g id="Group">
<path id="Vector" d="M27.4488 45.8148H20.1129L16.275 28.471H16.1778L12.3398 45.8634H4.8582L0 24.293H5.05253L8.69618 42.3655H8.79334L12.9714 24.293H19.3356L23.4165 42.3655H23.6108L27.2545 24.293H32.2584L27.4488 45.8148Z" fill="white"/>
<g id="Group_2">
<path id="Vector_2" d="M32.761 22.3643L37.6678 0.793945H32.8096L28 22.3643H32.761Z" fill="white"/>
</g>
<path id="Vector_3" d="M69.5208 45.8151C69.4723 45.8151 63.4967 45.8151 63.4967 45.8151C57.9583 45.8151 56.2579 44.5034 56.2579 39.1108V28.1312H53.5859V24.1961H56.2579V19.3379H61.4076V24.1961H69.618V28.1312H61.4076V39.0622C61.4562 41.0055 61.4562 41.9285 63.4967 41.9285C63.5452 41.9285 69.5208 41.9285 69.5208 41.9285V45.8151Z" fill="white"/>
<path id="Vector_4" d="M42.8038 32.6493C38.2857 32.6493 38.5771 32.3578 38.5771 30.2688C38.5771 27.9369 40.4233 28.0826 42.8524 28.0826C43.0467 28.0826 50.0911 28.0826 50.2368 28.0826V24.1475C50.1397 24.1475 42.7066 24.1475 42.6095 24.1475C38.5286 24.1475 33.9619 24.1475 33.9619 29.8801C33.9619 35.3699 33.9619 36.5359 41.8321 36.5359C47.0304 36.5359 47.1276 36.9731 47.1276 39.4508C47.1276 41.8313 45.4758 41.8313 42.5609 41.8313C42.5123 41.8313 36.4881 41.8313 33.5246 41.8313L32.6016 45.7664C35.3222 45.7664 42.6095 45.7664 42.7552 45.7664C47.9535 45.7179 51.6943 45.0377 51.6943 39.4022C51.7429 32.7465 49.168 32.6493 42.8038 32.6493Z" fill="white"/>
</g>
</g>
</g>
<defs>
<clipPath id="clip0_282_6784">
<rect width="115" height="46" fill="white" transform="translate(0 0.828125)"/>
</clipPath>
</defs>
</svg>